<svg xmlns="http://www.w3.org/2000/svg" width="600" height="500" viewBox="0 0 600 500"><rect width="600" height="500" fill="#f2e9dd"/><ellipse cx="300" cy="436" rx="130" ry="16" fill="#d7c5af" opacity=".4"/><path d="M209 111v294M391 111v294" fill="none" stroke="#e0be8f" stroke-width="14"/><rect x="190" y="130" width="220" height="28" rx="14" fill="#b87e4d"/><path d="M212 140h175" stroke="#d7a56d" stroke-width="3"/><rect x="190" y="185" width="220" height="28" rx="14" fill="#b87e4d"/><path d="M212 195h175" stroke="#d7a56d" stroke-width="3"/><rect x="190" y="240" width="220" height="28" rx="14" fill="#b87e4d"/><path d="M212 250h175" stroke="#d7a56d" stroke-width="3"/><rect x="190" y="295" width="220" height="28" rx="14" fill="#b87e4d"/><path d="M212 305h175" stroke="#d7a56d" stroke-width="3"/><rect x="190" y="350" width="220" height="28" rx="14" fill="#b87e4d"/><path d="M212 360h175" stroke="#d7a56d" stroke-width="3"/><circle cx="210" cy="89" r="18" fill="none" stroke="#747779" stroke-width="7"/><circle cx="390" cy="89" r="18" fill="none" stroke="#747779" stroke-width="7"/></svg>